<svg xmlns="http://www.w3.org/2000/svg" viewBox="0 0 130.14 102.95"><defs><style>.cls-1{fill:#046fb7;}</style></defs><title>Asset 3</title><g id="Layer_2" data-name="Layer 2"><g id="Layer_1-2" data-name="Layer 1"><path class="cls-1" d="M128.6,72.22S83.6,87,79.9,83.57s-8.64-22.9-8.64-22.9,38.84-25.5,43.16-20.23-.62-8-.62-8-37,9.93-46.24,17.35-8.63-22.89-8.63-22.89L100.24,0S54.62,14.23,50.92,21.89a7.17,7.17,0,0,0-.45,2.94l-5.34-8.55s-48,65-45,80,6,0,6,0l23-37h28s9,33,13,37c2.88,2.88,4.73-1.49,5.53-4.17,8.6.31,35.12-7.82,46.77-13.29C134.76,73,128.6,72.22,128.6,72.22ZM28.13,51.28c-1-1,17-26,17-26l10,26S29.13,52.28,28.13,51.28Z"/></g></g></svg>